<svg xmlns="http://www.w3.org/2000/svg" viewBox="0 0 900 620">
  <defs>
    <filter id="shadow" x="-30%" y="-30%" width="160%" height="160%">
      <feDropShadow dx="0" dy="18" stdDeviation="18" flood-color="#0f172a" flood-opacity=".14"/>
    </filter>
    <radialGradient id="tomat" cx="42%" cy="34%" r="70%">
      <stop offset="0" stop-color="#ff6b55"/>
      <stop offset=".48" stop-color="#dc291f"/>
      <stop offset="1" stop-color="#9f1713"/>
    </radialGradient>
    <radialGradient id="lada" cx="40%" cy="30%" r="72%">
      <stop offset="0" stop-color="#e15b2d"/>
      <stop offset=".45" stop-color="#982313"/>
      <stop offset="1" stop-color="#4d120b"/>
    </radialGradient>
    <radialGradient id="bbq" cx="42%" cy="34%" r="72%">
      <stop offset="0" stop-color="#e36d24"/>
      <stop offset=".48" stop-color="#b84616"/>
      <stop offset="1" stop-color="#6c230d"/>
    </radialGradient>
    <radialGradient id="jamur" cx="44%" cy="34%" r="72%">
      <stop offset="0" stop-color="#f7debd"/>
      <stop offset=".55" stop-color="#dfb985"/>
      <stop offset="1" stop-color="#b68a55"/>
    </radialGradient>
  </defs>
  <rect width="900" height="620" fill="#ffffff"/>
  <g filter="url(#shadow)">
    <g transform="translate(170 98)">
      <ellipse cx="120" cy="120" rx="122" ry="118" fill="#f8fafc"/>
      <ellipse cx="120" cy="120" rx="98" ry="94" fill="url(#tomat)"/>
      <path d="M55 125c32-46 94-56 130-17 24 26-2 58-34 46-27-10-51-2-74 17-28 23-43-16-22-46z" fill="#ff806d" opacity=".28"/>
      <path d="M74 82c38-17 87-13 116 12" fill="none" stroke="#fff" stroke-width="10" stroke-linecap="round" opacity=".22"/>
    </g>
    <g transform="translate(510 78)">
      <ellipse cx="120" cy="120" rx="122" ry="118" fill="#f8fafc"/>
      <ellipse cx="120" cy="120" rx="98" ry="94" fill="url(#lada)"/>
      <path d="M65 114c30-44 107-50 136-6 21 31-18 65-53 45-28-16-53-8-73 8-24 18-29-21-10-47z" fill="#ef6a38" opacity=".2"/>
      <circle cx="72" cy="64" r="6" fill="#4a180d"/>
      <circle cx="92" cy="48" r="5" fill="#4a180d"/>
      <circle cx="238" cy="192" r="5" fill="#4a180d"/>
    </g>
    <g transform="translate(185 360)">
      <ellipse cx="120" cy="120" rx="122" ry="118" fill="#f8fafc"/>
      <ellipse cx="120" cy="120" rx="98" ry="94" fill="url(#bbq)"/>
      <path d="M78 108c45-44 123-19 123 25 0 35-45 48-73 28-20-14-46-4-62 16-22 28-24-34 12-69z" fill="#ffae52" opacity=".2"/>
    </g>
    <g transform="translate(520 360)">
      <ellipse cx="120" cy="120" rx="122" ry="118" fill="#f8fafc"/>
      <ellipse cx="120" cy="120" rx="98" ry="94" fill="url(#jamur)"/>
      <path d="M60 116c35-34 98-46 139-10 39 35 0 80-47 54-27-15-62-3-85 17-25 22-34-35-7-61z" fill="#fff3df" opacity=".32"/>
      <circle cx="92" cy="95" r="4" fill="#af7d48" opacity=".35"/>
      <circle cx="153" cy="139" r="3.5" fill="#af7d48" opacity=".35"/>
      <circle cx="129" cy="80" r="3" fill="#af7d48" opacity=".35"/>
    </g>
  </g>
</svg>
